<?xml version="1.0" standalone="no"?><!DOCTYPE svg PUBLIC "-//W3C//DTD SVG 1.1//EN" "http://www.w3.org/Graphics/SVG/1.1/DTD/svg11.dtd"><svg t="1705285426181" class="icon" viewBox="0 0 1024 1024" version="1.1" xmlns="http://www.w3.org/2000/svg" p-id="1724" xmlns:xlink="http://www.w3.org/1999/xlink" width="200" height="200"><path d="M433.9 606.6c2.9 7.6 1.3 14.3-7.3 17.6-25.3 9.5-176.1 61.2-200.4 66.5-24.3 5.3-47.6 2.1-62.7-12.7-15.2-14.8-22.3-31.7-10.1-30.6 2.8 0.2 7-0.1 11.9-1 3.2 3.6 7.1 7.6 11.4 11.8 15.2 14.8 34.4 15.7 58.7 10.4 23-5 162.7-49.3 198.5-62z" fill="#D8000F" p-id="1725"></path><path d="M387.2 572.4c19.3 2.1 41.2 19.7 46.8 34.2-35.8 12.6-175.5 57-198.6 62.1-24.3 5.3-43.5 4.4-58.7-10.4-4.3-4.2-8.3-8.2-11.4-11.8 15.4-2.7 38.8-10.6 55.2-22.6 8-2.8 15.4-6.5 21.1-11.2 22.9-19 73.6-50.8 71.1-97.7-2.7-50.8-40.4-72.1-63.6-74.2s-85.7 12.2-94.8 14.3c-30.9 7.2-42.7-9.9-39.7-33.2 0.3-2.5 0.8-4.7 1.3-6.8 7-5.7 16.9-9 29.4-13.8 34.5-13.4 95.7-31.2 144.3-6.8 48.6 24.3 77.1 66.9 69.2 126.2-2.1 16.1-6.9 29-12.1 38.9-3.7 4.8-6.9 8.1-8.9 10.3-0.9 1-0.5 2.6 0.5 3.1-4.2 5.8-8.1 9.8-10.3 12.2-1.2 1.3-0.2 3.5 1.5 3.3 0.2-0.1 40.4-17.9 57.7-16.1z" fill="#FF2B3F" p-id="1726"></path><path d="M346.8 559.6c-2.7 5.2-5.6 9.7-8.3 13.4-1.1-0.5-1.5-2.1-0.5-3.1 1.9-2.2 5.1-5.5 8.8-10.3z" fill="#FF4A4A" p-id="1727"></path><path d="M312.8 515c2.5 46.9-48.2 78.7-71.1 97.7-5.7 4.7-13.1 8.4-21.1 11.2 1.3-0.9 2.5-1.9 3.7-2.9 22.9-19 71.9-56 70.8-99.3-1-43.3-31.4-57-54.6-59.1-23.3-2.1-86 12.7-95.1 14.8-30.9 7.2-43.5-16.9-40.5-40.1 1.4-10.7 5.2-17.2 11.1-22.1-0.6 2.1-1 4.3-1.3 6.8-3 23.2 8.8 40.3 39.7 33.2 9.1-2.1 71.6-16.4 94.8-14.3s60.9 23.3 63.6 74.1z" fill="#D8000F" p-id="1728"></path><path d="M205 699.1c-18.6 0-34.4-5.7-45.7-16.8-10.6-10.3-21.4-25.7-17.1-35.1 0.9-2 3.8-6.5 11.7-5.8 2.2 0.2 6-0.1 10.4-0.9 15.3-2.7 37.5-10.4 52.7-21.5 1.3-0.9 2.4-1.8 3.4-2.6 1.5-1.3 3.1-2.6 4.9-4 24.2-19.8 64.7-53 63.8-90.5-1-44.2-34.7-52-49.2-53.3-13.8-1.3-47.4 4-92.3 14.4l-0.9 0.2c-18.2 4.2-29.4-1.6-35.6-7.2-9.7-8.8-14.3-23.6-12.2-39.5 1.5-11.6 5.7-19.8 13.3-26 6.8-5.5 15.7-8.9 26.1-12.9 1.6-0.6 3.2-1.2 4.9-1.9 41.8-16.2 101.5-30.4 149.2-6.6 54.5 27.2 80.2 74.2 72.5 132.3-2 14.8-6.2 28.6-12.7 40.9-2.5 4.9-5.5 9.6-8.7 14 13.8-5.2 33-11.2 44.5-10 22.2 2.4 45.6 22 51.7 38 2.2 5.8 2.3 11.2 0.3 15.7-1.4 3-4.4 7.1-11.1 9.6-25.6 9.6-176.1 61.3-201.2 66.8-8 1.9-15.5 2.7-22.7 2.7z m-51.6-45.7c0.9 3.6 5.2 11.4 14.3 20.3 12.8 12.4 33.1 16.4 57.3 11.1 24-5.2 174.6-56.9 199.6-66.3 2.3-0.9 3.7-2 4.4-3.3 0.9-1.9 0.2-4.6-0.5-6.5-4.7-12.2-24.4-28.5-41.8-30.4-12.8-1.4-43.6 10.8-54.4 15.5l-0.8 0.4-0.9 0.1c-3.3 0.4-6.4-1.3-7.9-4.3s-1-6.6 1.3-9.1l0.7-0.7c2.2-2.4 5.5-5.9 9.2-10.9 2.9-4 5.6-8.2 7.8-12.6 5.8-11.1 9.7-23.5 11.4-37 3.6-27.3-0.6-51.6-12.7-72.4-11.3-19.6-29.3-35.6-53.3-47.6-43.7-21.9-100-8.2-139.5 7.1-1.7 0.7-3.3 1.3-4.9 1.9-9.8 3.7-17.5 6.7-22.8 11-5.2 4.2-7.8 9.6-9 18.2-1.6 11.9 1.6 23 8.3 29.1 5.9 5.4 14.3 6.9 24.8 4.4l0.9-0.2c33.1-7.7 76.7-16.5 96.1-14.7 13.8 1.2 58.8 9.6 60.1 65 1 43.4-42.3 78.9-68.2 100.1-1.7 1.4-3.3 2.7-4.8 3.9-1.2 1-2.5 2-4 3.1-16.8 12.3-41.1 20.7-57.7 23.6-5.4 1.1-9.7 1.4-13 1.2z m-1.5 0z m180.7-64.2c-0.1 0-0.1 0 0 0z" fill="#91000A" p-id="1729"></path><path d="M550.4 424.7c9.4 15.1 14.9 33.2 14.9 52.6 0 53.1-40.8 96.1-91.1 96.1s-91.1-43-91.1-96.1 40.8-96.1 91.1-96.1h2c-45 1.2-81.1 39.7-81.1 87 0 48.1 37.3 87.1 83.2 87.1 46 0 83.2-39 83.2-87.1 0.1-15.8-4-30.7-11.1-43.5z" fill="#D8000F" p-id="1730"></path><path d="M550.4 424.7c7.1 12.8 11.2 27.7 11.2 43.6 0 48.1-37.3 87.1-83.2 87.1-46 0-83.2-39-83.2-87.1 0-47.3 36.1-85.8 81.1-87h0.3c30.9 0.8 58 17.9 73.8 43.4z m-41.8 63.2c0-27.4-21.1-49.7-47.1-49.7s-47.1 22.2-47.1 49.7c0 27.4 21.1 49.7 47.1 49.7s47.1-22.3 47.1-49.7z" fill="#FF2B3F" p-id="1731"></path><path d="M474.2 579.5c-53.5 0-97.1-45.8-97.1-102.1s43.6-102.1 97.1-102.1h2.4c31.9 0.9 61.3 18.2 78.8 46.3 10.3 16.6 15.8 35.9 15.8 55.8 0.1 56.3-43.5 102.1-97 102.1z m0-192.2c-46.9 0-85.1 40.4-85.1 90.1s38.2 90.1 85.1 90.1 85.1-40.4 85.1-90.1c0-17.7-4.8-34.8-13.9-49.4-15.3-24.7-41.1-39.9-69-40.6h-0.3c-0.6-0.1-1.3-0.1-1.9-0.1z" fill="#91000A" p-id="1732"></path><path d="M461.5 543.6c-29.3 0-53.1-25-53.1-55.7s23.8-55.7 53.1-55.7 53.1 25 53.1 55.7-23.8 55.7-53.1 55.7z m0-99.3c-22.6 0-41.1 19.6-41.1 43.7s18.4 43.7 41.1 43.7 41.1-19.6 41.1-43.7-18.4-43.7-41.1-43.7z" fill="#91000A" p-id="1733"></path><path d="M668.5 439.4c0.9 9.8-7.4 6.6-12.9 7.3-2.4 0.3-4.3 0.6-5.9 1.7 1.7-3.6 4.1-4.1 7.5-4.6 4.4-0.6 10.6 1.8 11.3-4.4z" fill="#FFEB43" p-id="1734"></path><path d="M668.5 439.4c-0.6 6.2-6.9 3.8-11.2 4.4-3.4 0.5-5.8 1-7.5 4.6-3.9 2.5-5.8 9.4-7.3 31.1-1.6 24.7-12.5 84.7-27.9 118.5-0.8 1.1-1.6 2.1-2.4 3-18.6 21-68.2 28.1-61.1-3.9 7.1-32 38 2.5 48.7-62.5 10.6-65 10.4-115.8 11.2-123.7 0.9-8.9 9.2-17.1 19.2-18.7 11.1 1.4 22.3 8 29.4 22.9 6 12.2 8.5 19.7 8.9 24.3z" fill="#FFEB00" p-id="1735"></path><path d="M594.9 411.9c1.2-11.6 18.2-21.9 35.3-19.8-10.1 1.6-18.4 9.8-19.2 18.7-0.8 8-0.6 58.7-11.2 123.7S558.2 565 551.1 597c-7.1 32 42.6 24.9 61.1 3.9 0.8-0.9 1.6-1.9 2.4-3-3.6 8-7.5 14.6-11.6 18.8-21.3 22.2-78.9 21.1-70.8-12.7 8.1-33.8 38.5-8.5 50.6-77.1 12.1-68.6 11.2-106.6 12.1-115z" fill="#FFC500" p-id="1736"></path><path d="M562.8 637.8c-8.7 0-17-1.7-23.7-5.3-11.2-6.1-15.9-17-12.8-29.8 3.9-16.3 12.7-21.3 21.1-26 10.6-6 22.7-12.8 29.4-50.7 9.7-54.7 11-89.2 11.6-105.8 0.2-4.2 0.3-7 0.5-8.9 0.6-6 4.2-11.8 10-16.5 8.6-6.8 20.6-10.1 32-8.6 14.7 1.9 26.9 11.2 34.1 26.3 5.8 12.2 8.8 20.6 9.4 26.4 0.4 4.4-0.5 7.9-2.8 10.3-3.5 3.7-8.4 3.6-12.1 3.5-1.2 0-2.4-0.1-3.2 0-1.1 0.1-2.8 0.4-3.3 0.7-1.4 0.9-3.3 6.2-4.6 26.5-1.6 24.4-12.5 85.5-28.4 120.5-4.2 9.2-8.3 15.9-12.8 20.5-10.2 10.8-27.9 16.9-44.4 16.9z m62.9-240c-7 0-14.1 2.3-19.2 6.4-3.2 2.6-5.3 5.6-5.6 8.3-0.2 1.5-0.3 4.4-0.4 8.1-0.6 16.9-2 52-11.8 107.5-7.7 43.5-23 52.1-35.3 59.1-7.6 4.3-12.7 7.2-15.4 18.4-1.8 7.6 0.4 12.9 6.9 16.4 14.3 7.8 42 3 53.8-9.3 3.4-3.5 6.9-9.3 10.5-17.2 15.3-33.7 25.8-92.8 27.3-116.4 1.6-23.7 3.8-31.7 10-35.7 2.6-1.8 5.5-2.2 8.4-2.6 1.7-0.2 3.5-0.2 5-0.1 0.8 0 1.8 0.1 2.6 0v-0.7c-0.3-3-1.9-9.2-8.2-22.4-6.9-14.5-17.3-18.6-24.8-19.6-1.3-0.1-2.5-0.2-3.8-0.2z" fill="#91000A" p-id="1737"></path><path d="M763.3 338.2c66.6-30.4 128.7 30.1 125.5 91.5-3 15.9-14.2 41.3-25.2 57.5-2.6 3-5.3 5.9-8 8.6-9.4 9.4-9.6 25.1-0.2 34.6 9.6 9.6 17.5 20.7 23.2 32.8 4.9 11.9 7.5 24.7 7.1 37.8-1.6 56.7-51.8 99.3-118.9 84.8-60.2-13-107.1-53.1-102.6-105.7 2.6-30.2 21.2-55.5 48.1-70.5 13.8-7.7 16.7-16.4 9.7-31-3.1-6.5-5.8-13.9-7.9-22.3-1.6-6.5-7.7-35.5 15.3-30.9 4 7.3 3.2 17.6 5.8 26.2 4.6 15.1 13.1 28 27.1 33.7 5.2 4.9 11.5 8.3 19.3 9 22.5 2.1 46.3-2.5 61.1-36.5 26.2-59.9-40.5-96.5-70.2-84.4-9 3.7-31 14.8-41.5 0.9-6.6-8.7-11.9-15.7-15.9-21.2 13.9 0.4 28.5-5.9 48.2-14.9z m-14.6 299c37 10.8 63.9-12.3 63.8-45.5-0.1-28.3-22.2-53.5-55-56.6-32.8-3.1-59.1 17.3-61.5 45.5-2.5 28.3 20.9 47.4 52.7 56.6z" fill="#FFEB00" p-id="1738"></path><path d="M878.6 563.1c6.9 14.6 10.7 30.5 10.2 47-1.8 62.5-57.3 109.5-131.3 93.5-66.4-14.3-118.2-58.4-113.2-116.4 2.9-33.2 23.4-61.2 53.1-77.8 15.2-8.5 18.5-18.1 10.7-34.2-3.4-7.2-6.4-15.3-8.7-24.5-1.8-7.3-8.7-40.3 18.4-33.8 6 1.4 9.4 4.4 11.5 8.3-23-4.5-16.9 24.4-15.3 30.9 2 8.4 4.8 15.8 7.9 22.3 7 14.6 4 23.3-9.7 31-26.9 15-45.5 40.4-48.1 70.5-4.5 52.6 42.5 92.7 102.6 105.7 67.1 14.5 117.3-28.1 118.9-84.8 0.5-13-2.1-25.8-7-37.7z" fill="#FFC500" p-id="1739"></path><path d="M888.8 429.7c-0.2 3.6-0.6 7.2-1.2 10.8-3.2 17.6-12.8 33.5-24 46.7 11-16.2 22.2-41.6 25.2-57.5z" fill="#FFEB43" p-id="1740"></path><path d="M772.6 373.3c29.8-12.1 96.4 24.5 70.2 84.4-14.9 33.9-38.7 38.6-61.1 36.5-7.8-0.7-14.2-4.1-19.3-9 3.7 1.5 7.7 2.5 12.2 2.9 24.8 2.3 51.9-17 56.4-44.4 5.8-34.9-29.2-65-62.1-51.6-10 4.1-34.2 16.3-45.8 1-27.9-36.8-35.2-45.5-15-41 2.4 0.5 4.8 0.8 7.2 0.9 3.9 5.5 9.3 12.5 15.9 21.2 10.4 13.9 32.3 2.8 41.4-0.9z" fill="#FFC500" p-id="1741"></path><path d="M786.1 712.8c-9.7 0-19.7-1.1-29.9-3.3-34.5-7.4-65.2-22.9-86.3-43.4-23.2-22.6-34.2-50-31.6-79.4 2.9-34.1 23.4-64.2 56.2-82.5 12.6-7.1 14.6-13.2 8.2-26.4-3.8-8-6.9-16.7-9.1-25.7-2.4-9.8-5-27.7 4.1-36.8 5-5 12.3-6.4 21.6-4.2 7 1.7 12.2 5.5 15.4 11.2 2.9 5.3 3.7 11.4 4.5 17.2 0.5 3.6 0.9 7.1 1.8 10.1 4.6 15.3 12.6 25.4 23.6 29.8 3.2 1.3 6.7 2.2 10.5 2.5 22.8 2.1 46.1-16.3 50-39.4 2.4-14.6-3.5-29.5-15.3-39-11.3-9-25.7-11.3-38.6-6.1-0.8 0.3-1.8 0.8-2.9 1.2-11.9 5-36.6 15.5-50-2.1l-3-3.9c-22-29-27.9-36.8-23.4-43.8 3.8-5.9 12.4-3.9 17.5-2.7 1.9 0.4 4 0.7 6.1 0.8 12.1 0.5 25.2-5.1 45.4-14.3 29.7-13.5 61.9-10.9 88.6 7.2 29.4 20 47.3 55.4 45.5 90.1-0.2 3.8-0.6 7.7-1.3 11.6-3 16.7-11.5 33.3-25.3 49.5l-0.1 0.1c-2.6 3-5.4 6-8.2 8.9-7.1 7.1-7.2 19.1-0.2 26.1 10.2 10.3 18.4 21.9 24.4 34.4 7.6 16 11.3 32.8 10.8 49.7-0.9 31.7-15.2 60.7-39.3 79.5-19.7 15.3-43.6 23.1-69.7 23.1z m-74.7-290.7c-2.3 0-4 0.6-5.2 1.7-3.5 3.5-3.9 13.5-0.9 25.5 2 8.2 4.8 16.1 8.3 23.3 9.1 18.9 5 31.9-13.2 42-29.2 16.3-47.5 43-50.1 73.1-2.2 25.6 7.5 49.8 28 69.8 19.5 19 48.1 33.3 80.4 40.3 33.9 7.3 65.6 1.1 89.3-17.4 21.3-16.7 33.9-42.4 34.7-70.4 0.4-15-2.8-29.9-9.6-44.2-5.4-11.3-12.8-21.8-22.1-31.1-11.7-11.8-11.6-31.1 0.3-43 2.7-2.7 5.2-5.5 7.7-8.3 0 0 0-0.1 0.1-0.1 12.4-14.5 20-29.2 22.6-43.7 0.6-3.3 1-6.7 1.1-10 1.6-30.6-14.2-61.9-40.2-79.6-23.4-15.9-50.7-18.1-76.8-6.2-21.1 9.7-36.1 15.9-50.8 15.4-2.9-0.1-5.6-0.5-8.3-1.1-0.8-0.2-1.6-0.3-2.2-0.5 3.5 5.9 11.5 16.3 20.3 28l3 3.9c7.7 10.2 26 2.5 35.7-1.7 1.1-0.5 2.1-0.9 3-1.3 16.9-6.9 35.8-3.9 50.6 7.8 15.3 12.2 22.8 31.5 19.7 50.3-4.9 29.5-33.7 52.1-62.9 49.4-4.9-0.5-9.6-1.6-13.9-3.3-14.3-5.8-24.9-18.8-30.5-37.5-1.2-4-1.7-8.1-2.3-12-0.7-5-1.3-9.7-3.1-13-1-1.9-2.8-4.2-7.7-5.3-1.8-0.6-3.5-0.8-5-0.8z" fill="#91000A" p-id="1742"></path><path d="M766.6 645.9c-6.3 0-12.9-1-19.6-2.9-38.7-11.3-59.5-34.2-57-62.8 1.2-14.4 8.1-27.5 19.4-36.9 12.9-10.8 30.2-15.8 48.7-14.1 17 1.6 32.5 9 43.6 20.7 10.8 11.5 16.8 26.3 16.9 41.8 0.1 18.2-7.4 34.3-20.4 44.1-9 6.7-19.8 10.1-31.6 10.1z m-16.2-14.4c15.6 4.5 30 2.7 40.5-5.2 10-7.5 15.7-20.1 15.6-34.4 0-12.4-4.9-24.4-13.6-33.6-9.1-9.6-21.9-15.7-36-17-15.2-1.4-29.4 2.6-39.8 11.3-8.8 7.3-14.2 17.5-15.1 28.7-2.8 31.7 32.9 45.7 48.4 50.2zM863.6 493.1c-1.5 0-3-0.6-4.2-1.7-2.4-2.3-2.4-6.1-0.1-8.5 2.3-2.4 6.1-2.4 8.5-0.1 2.4 2.3 2.4 6.1 0.1 8.5-1.2 1.2-2.7 1.8-4.3 1.8z" fill="#91000A" p-id="1743"></path></svg>