<?xml version="1.0" standalone="no"?><!DOCTYPE svg PUBLIC "-//W3C//DTD SVG 1.1//EN" "http://www.w3.org/Graphics/SVG/1.1/DTD/svg11.dtd"><svg t="1707300852264" class="icon" viewBox="0 0 1024 1024" version="1.1" xmlns="http://www.w3.org/2000/svg" p-id="18819" width="32" height="32" xmlns:xlink="http://www.w3.org/1999/xlink"><path d="M578.4 174.6v385.6c0 3.2 0.6 6.4 1.6 9.4l96.4 289.2c4 12.2 15.6 20.6 28.4 20.6h96.4c16.6 0 30-13.4 30-30V590.2H994c16.6 0 30-13.4 30-30V174.6c0-16.6-13.4-30-30-30H608.4c-16.6 0-30 13.4-30 30z" fill="#F63A79" p-id="18820"></path><path d="M0 174.6v385.6c0 3.2 0.6 6.4 1.6 9.4L98 858.8c4 12.2 15.6 20.6 28.4 20.6h96.4c16.6 0 30-13.4 30-30V590.2h162.8c16.6 0 30-13.4 30-30V174.6c0-16.6-13.4-30-30-30H30c-16.6 0-30 13.4-30 30z" fill="#C8366D" p-id="18821"></path></svg>