<?xml version="1.0" standalone="no"?><!DOCTYPE svg PUBLIC "-//W3C//DTD SVG 1.1//EN" "http://www.w3.org/Graphics/SVG/1.1/DTD/svg11.dtd"><svg t="1706693356579" class="icon" viewBox="0 0 1024 1024" version="1.1" xmlns="http://www.w3.org/2000/svg" p-id="4379" width="32" height="32" data-spm-anchor-id="a313x.search_index.0.i5.16413a81QaidYS" xmlns:xlink="http://www.w3.org/1999/xlink"><path d="M1.524 981.334V541.899C-0.345 478.672 8.773 419.3 28.869 363.785s48.267-104.363 84.73-146.559c36.345-42.07 79.822-77.018 130.664-104.835 50.725-27.699 105.769-45.463 165.141-53.057v189.564c-72.809 24.895-122.599 61.704-149.363 110.56-26.882 48.856-40.201 108.691-40.201 179.512h189.557v442.356H1.525z m611.816 0V541.899c-1.987-63.227 7.131-122.599 27.228-178.114 20.105-55.515 48.385-104.363 84.73-146.559 36.345-42.07 79.939-77.018 130.664-104.835 50.725-27.699 105.887-45.463 165.258-53.057v189.564c-72.809 24.895-122.599 61.704-149.363 110.56-26.882 48.856-40.201 108.691-40.201 179.512h189.564v442.356H613.34z" fill="#d81e06" p-id="4380" data-spm-anchor-id="a313x.search_index.0.i1.16413a81QaidYS" class=""></path></svg>