<?xml version="1.0" standalone="no"?><!DOCTYPE svg PUBLIC "-//W3C//DTD SVG 1.1//EN" "http://www.w3.org/Graphics/SVG/1.1/DTD/svg11.dtd"><svg t="1705471724344" class="icon" viewBox="0 0 1024 1024" version="1.1" xmlns="http://www.w3.org/2000/svg" p-id="2605" xmlns:xlink="http://www.w3.org/1999/xlink" width="200" height="200"><path d="M598.016 785.066667c0-38.229333-38.229333-69.632-84.650667-69.632-46.421333 0-84.650667 31.402667-84.650666 69.632S466.944 1024 513.365333 1024c47.786667 0 84.650667-200.704 84.650667-238.933333zM737.28 380.928C737.28 228.010667 658.090667 86.016 528.384 4.096c-8.192-5.461333-19.114667-5.461333-27.306667 0-150.186667 94.208-230.741333 267.605333-203.434666 443.733333 1.365333 6.826667 0 12.288-4.096 17.749334-32.768 54.613333-49.152 116.053333-49.152 180.224 0 30.037333 4.096 58.709333 10.922666 87.381333 6.826667 24.576 39.594667 27.306667 50.517334 4.096 17.749333-36.864 40.96-69.632 69.632-98.304 2.730667 2.730667 4.096 5.461333 5.461333 8.192 45.056 2.730667 88.746667 5.461333 133.802667 5.461333 45.056 0 88.746667-1.365333 133.802666-5.461333 2.730667-2.730667 4.096-5.461333 6.826667-8.192 28.672 28.672 53.248 62.805333 69.632 98.304 10.922667 23.210667 43.690667 20.48 50.517333-4.096 6.826667-28.672 10.922667-58.709333 10.922667-87.381333 0-62.805333-16.384-125.610667-49.152-180.224-2.730667-5.461333-4.096-12.288-4.096-17.749334 2.730667-23.210667 4.096-45.056 4.096-66.901333zM514.730667 245.76c49.152 0 90.112 39.594667 90.112 90.112s-39.594667 90.112-90.112 90.112c-49.152 0-90.112-39.594667-90.112-90.112 0-50.517333 39.594667-90.112 90.112-90.112z m0 0" fill="#4777F4" p-id="2606"></path></svg>